<?xml version="1.0" encoding="UTF-8" ?>
<svg xmlns="http://www.w3.org/2000/svg" xmlns:xlink="http://www.w3.org/1999/xlink" width="258pt" height="310pt" viewBox="0.00 0.00 258.46 310.40">
<g id="graph0" class="graph" transform="scale(1 1) rotate(0) translate(4 306.4)">
<title>%0</title>
<polygon fill="#ffffff" stroke="transparent" points="-4,4 -4,-306.4 254.4634,-306.4 254.4634,4 -4,4"/>
<!-- ARB -->
<g id="node1" class="node">
<title>ARB</title>
<ellipse fill="none" stroke="#000000" cx="90.6744" cy="-284.4" rx="30.777" ry="18"/>
<text text-anchor="middle" x="90.6744" y="-280.2" font-family="Times,serif" font-size="14.00" fill="#000000">ARB</text>
</g>
<!-- Staked ARB -->
<g id="node2" class="node">
<title>Staked ARB</title>
<ellipse fill="none" stroke="#000000" cx="90.6744" cy="-195.6" rx="59.6699" ry="18"/>
<text text-anchor="middle" x="90.6744" y="-191.4" font-family="Times,serif" font-size="14.00" fill="#000000">Staked ARB</text>
</g>
<!-- ARB&#45;&gt;Staked ARB -->
<g id="edge1" class="edge">
<title>ARB-&gt;Staked ARB</title>
<path fill="none" stroke="#000000" d="M90.6744,-266.0006C90.6744,-253.8949 90.6744,-237.8076 90.6744,-224.0674"/>
<polygon fill="#000000" stroke="#000000" points="94.1745,-223.672 90.6744,-213.672 87.1745,-223.6721 94.1745,-223.672"/>
<text text-anchor="middle" x="151.5247" y="-235.8" font-family="Times,serif" font-size="14.00" fill="#000000">Vote with your ARB!</text>
</g>
<!-- AUSD -->
<g id="node3" class="node">
<title>AUSD</title>
<ellipse fill="none" stroke="#000000" cx="90.6744" cy="-106.8" rx="37.1386" ry="18"/>
<text text-anchor="middle" x="90.6744" y="-102.6" font-family="Times,serif" font-size="14.00" fill="#000000">AUSD</text>
</g>
<!-- Staked ARB&#45;&gt;AUSD -->
<g id="edge2" class="edge">
<title>Staked ARB-&gt;AUSD</title>
<path fill="none" stroke="#000000" d="M90.6744,-177.2006C90.6744,-165.0949 90.6744,-149.0076 90.6744,-135.2674"/>
<polygon fill="#000000" stroke="#000000" points="94.1745,-134.872 90.6744,-124.872 87.1745,-134.8721 94.1745,-134.872"/>
<text text-anchor="middle" x="167.4532" y="-147" font-family="Times,serif" font-size="14.00" fill="#000000">Get a productive stablecoin</text>
</g>
<!-- Infrastructure voting -->
<g id="node4" class="node">
<title>Infrastructure voting</title>
<ellipse fill="none" stroke="#000000" cx="90.6744" cy="-18" rx="90.8492" ry="18"/>
<text text-anchor="middle" x="90.6744" y="-13.8" font-family="Times,serif" font-size="14.00" fill="#000000">Infrastructure voting</text>
</g>
<!-- AUSD&#45;&gt;Infrastructure voting -->
<g id="edge3" class="edge">
<title>AUSD-&gt;Infrastructure voting</title>
<path fill="none" stroke="#000000" d="M90.6744,-88.4006C90.6744,-76.2949 90.6744,-60.2076 90.6744,-46.4674"/>
<polygon fill="#000000" stroke="#000000" points="94.1745,-46.072 90.6744,-36.072 87.1745,-46.0721 94.1745,-46.072"/>
<text text-anchor="middle" x="170.5689" y="-58.2" font-family="Times,serif" font-size="14.00" fill="#000000">Vote on protocol derivatives</text>
</g>
</g>
</svg>