<svg width="370" height="68" viewBox="0 0 370 68" fill="none" xmlns="http://www.w3.org/2000/svg">
<path d="M122.4 62C121.973 62 121.573 61.84 121.2 61.52C120.88 61.1467 120.72 60.7467 120.72 60.32C120.72 60.0533 120.747 59.8133 120.8 59.6L139.6 8.24C139.76 7.65333 140.08 7.14666 140.56 6.72C141.093 6.24 141.813 6 142.72 6H154.56C155.467 6 156.16 6.24 156.64 6.72C157.173 7.14666 157.52 7.65333 157.68 8.24L176.4 59.6C176.507 59.8133 176.56 60.0533 176.56 60.32C176.56 60.7467 176.373 61.1467 176 61.52C175.68 61.84 175.28 62 174.8 62H164.96C164.16 62 163.547 61.8133 163.12 61.44C162.747 61.0133 162.507 60.64 162.4 60.32L159.28 52.16H137.92L134.88 60.32C134.773 60.64 134.533 61.0133 134.16 61.44C133.787 61.8133 133.147 62 132.24 62H122.4ZM141.2 40.64H156.08L148.56 19.52L141.2 40.64ZM209.444 62.8C206.404 62.8 203.498 62.4267 200.724 61.68C198.004 60.88 195.578 59.7067 193.444 58.16C191.311 56.6133 189.604 54.6933 188.324 52.4C187.098 50.1067 186.431 47.44 186.324 44.4C186.324 43.92 186.484 43.52 186.804 43.2C187.124 42.8267 187.551 42.64 188.084 42.64H198.884C199.631 42.64 200.191 42.8267 200.564 43.2C200.991 43.5733 201.338 44.1333 201.604 44.88C201.871 46.3733 202.378 47.6 203.124 48.56C203.871 49.4667 204.804 50.16 205.924 50.64C207.098 51.0667 208.404 51.28 209.844 51.28C212.511 51.28 214.564 50.4267 216.004 48.72C217.444 46.96 218.164 44.4 218.164 41.04V17.92H192.244C191.711 17.92 191.231 17.7333 190.804 17.36C190.431 16.9867 190.244 16.5067 190.244 15.92V8C190.244 7.41333 190.431 6.93333 190.804 6.56C191.231 6.18666 191.711 6 192.244 6H230.964C231.551 6 232.031 6.18666 232.404 6.56C232.831 6.93333 233.044 7.41333 233.044 8V41.44C233.044 46.08 232.031 50 230.004 53.2C227.978 56.3467 225.204 58.7467 221.684 60.4C218.164 62 214.084 62.8 209.444 62.8ZM253.678 62C253.091 62 252.611 61.8133 252.238 61.44C251.865 61.0667 251.678 60.5867 251.678 60V8C251.678 7.41333 251.865 6.93333 252.238 6.56C252.611 6.18666 253.091 6 253.678 6H262.158C263.065 6 263.705 6.21333 264.078 6.64C264.505 7.01333 264.771 7.30666 264.878 7.52L284.398 38.32V8C284.398 7.41333 284.585 6.93333 284.958 6.56C285.331 6.18666 285.811 6 286.398 6H295.998C296.585 6 297.065 6.18666 297.438 6.56C297.811 6.93333 297.998 7.41333 297.998 8V60C297.998 60.5333 297.811 61.0133 297.438 61.44C297.065 61.8133 296.585 62 295.998 62H287.438C286.585 62 285.945 61.7867 285.518 61.36C285.145 60.9333 284.905 60.64 284.798 60.48L265.278 30.88V60C265.278 60.5867 265.091 61.0667 264.718 61.44C264.345 61.8133 263.865 62 263.278 62H253.678ZM313.978 62C313.551 62 313.151 61.84 312.778 61.52C312.458 61.1467 312.298 60.7467 312.298 60.32C312.298 60.0533 312.325 59.8133 312.378 59.6L331.178 8.24C331.338 7.65333 331.658 7.14666 332.138 6.72C332.671 6.24 333.391 6 334.298 6H346.138C347.045 6 347.738 6.24 348.218 6.72C348.751 7.14666 349.098 7.65333 349.258 8.24L367.978 59.6C368.085 59.8133 368.138 60.0533 368.138 60.32C368.138 60.7467 367.951 61.1467 367.578 61.52C367.258 61.84 366.858 62 366.378 62H356.538C355.738 62 355.125 61.8133 354.698 61.44C354.325 61.0133 354.085 60.64 353.978 60.32L350.858 52.16H329.498L326.458 60.32C326.351 60.64 326.111 61.0133 325.738 61.44C325.365 61.8133 324.725 62 323.818 62H313.978ZM332.778 40.64H347.658L340.138 19.52L332.778 40.64Z" fill="#031371"/>
<g style="mix-blend-mode:overlay">
<path fill-rule="evenodd" clip-rule="evenodd" d="M48.0968 0C63.5827 0 78.7352 7.35692 93.4741 21.3709C93.493 21.3889 93.5116 21.4071 93.5301 21.4255C95.021 22.9151 95.9991 25.0956 95.9991 27.3593C95.9991 27.7797 95.9167 28.1808 95.7672 28.5474C95.5436 30.2461 94.8133 32.0378 93.2709 33.3942C92.3799 34.2436 91.4875 35.0686 90.5938 35.8689C90.5405 35.9411 90.4837 36.0116 90.4233 36.0802C90.1818 36.3549 89.903 36.5775 89.6011 36.7472C76.6024 48.1089 63.3115 54.2628 49.7334 54.7359C35.5662 55.2294 21.6448 49.5197 8.0092 38.1663C7.65834 38.4879 7.31248 38.8163 6.96768 39.1608C6.93798 39.1905 6.90768 39.2195 6.87681 39.248C6.19016 39.8813 6.03527 41.12 6.88916 42.0442L6.91175 42.0655C20.9242 55.3887 34.6002 61.7004 47.943 61.7004C61.2857 61.7004 74.9618 55.3887 88.9742 42.0655C90.2354 40.8663 92.2307 40.9158 93.4308 42.1759C94.631 43.436 94.5815 45.4296 93.3203 46.6288C78.5814 60.6428 63.4288 67.9997 47.943 67.9997C32.5687 67.9997 17.5231 60.7485 2.88454 46.9309C2.57952 46.7258 2.25626 46.435 1.98545 46.0292C1.96586 45.9998 1.94686 45.9703 1.92843 45.9407C-0.854329 42.5588 -0.60668 37.6273 2.54995 34.6663C3.70417 33.5168 4.84917 32.5362 5.8993 31.6369L5.93333 31.6077C5.9473 31.5958 5.96134 31.584 5.97546 31.5723C19.7025 19.5425 33.7205 13.2446 48.0198 13.2446C61.5824 13.2446 74.892 18.9103 87.9402 29.7587C88.283 29.4395 88.626 29.1161 88.9693 28.7884C89.0103 28.7493 89.0523 28.7113 89.0953 28.6745C89.2946 28.5038 89.5403 28.1032 89.5403 27.3591C89.5403 27.1568 89.5593 26.9589 89.5958 26.7672C89.4917 26.441 89.3122 26.1278 89.0924 25.9004C75.0924 12.6003 61.4282 6.29929 48.0968 6.29929C34.7541 6.29929 21.078 12.611 7.06559 25.9342C5.80441 27.1334 3.80911 27.084 2.60896 25.8238C1.40881 24.5637 1.45828 22.5701 2.71945 21.3709C17.4584 7.35692 32.6109 0 48.0968 0ZM83.1375 33.967C71.1427 24.2005 59.46 19.5439 48.0198 19.5439C36.5668 19.5439 24.8707 24.2109 12.8618 33.9998C25.3938 44.2069 37.5883 48.8559 49.5137 48.4404C60.4882 48.058 71.6867 43.3715 83.1375 33.967ZM41.8983 33.9981C41.8983 30.6196 44.6394 27.8808 48.0207 27.8808C51.4019 27.8808 54.143 30.6196 54.143 33.9981C54.143 37.3765 51.4019 40.1153 48.0207 40.1153C44.6394 40.1153 41.8983 37.3765 41.8983 33.9981ZM48.0207 21.5815C41.1575 21.5815 35.5938 27.1406 35.5938 33.9981C35.5938 40.8555 41.1575 46.4146 48.0207 46.4146C54.8838 46.4146 60.4476 40.8555 60.4476 33.9981C60.4476 27.1406 54.8838 21.5815 48.0207 21.5815Z" fill="#B5179E"/>
</g>
</svg>
