<?xml version="1.0" encoding="UTF-8" ?>
<svg xmlns="http://www.w3.org/2000/svg" xmlns:xlink="http://www.w3.org/1999/xlink" width="222pt" height="222pt" viewBox="0.00 0.00 221.87 221.60">
<g id="graph0" class="graph" transform="scale(1 1) rotate(0) translate(4 217.6)">
<title>%0</title>
<polygon fill="#ffffff" stroke="transparent" points="-4,4 -4,-217.6 217.8731,-217.6 217.8731,4 -4,4"/>
<!-- Lender -->
<g id="node1" class="node">
<title>Lender</title>
<ellipse fill="none" stroke="#000000" cx="67.4025" cy="-195.6" rx="38.2626" ry="18"/>
<text text-anchor="middle" x="67.4025" y="-191.4" font-family="Times,serif" font-size="14.00" fill="#000000">Lender</text>
</g>
<!-- Pool -->
<g id="node2" class="node">
<title>Pool</title>
<ellipse fill="none" stroke="#000000" cx="67.4025" cy="-106.8" rx="28.9929" ry="18"/>
<text text-anchor="middle" x="67.4025" y="-102.6" font-family="Times,serif" font-size="14.00" fill="#000000">Pool</text>
</g>
<!-- Lender&#45;&gt;Pool -->
<g id="edge1" class="edge">
<title>Lender-&gt;Pool</title>
<path fill="none" stroke="#000000" d="M67.4025,-177.2006C67.4025,-165.0949 67.4025,-149.0076 67.4025,-135.2674"/>
<polygon fill="#000000" stroke="#000000" points="70.9025,-134.872 67.4025,-124.872 63.9025,-134.8721 70.9025,-134.872"/>
<text text-anchor="middle" x="109.5908" y="-147" font-family="Times,serif" font-size="14.00" fill="#000000">Supplies assets</text>
</g>
<!-- Borrower -->
<g id="node3" class="node">
<title>Borrower</title>
<ellipse fill="none" stroke="#000000" cx="67.4025" cy="-18" rx="48.0723" ry="18"/>
<text text-anchor="middle" x="67.4025" y="-13.8" font-family="Times,serif" font-size="14.00" fill="#000000">Borrower</text>
</g>
<!-- Pool&#45;&gt;Borrower -->
<g id="edge2" class="edge">
<title>Pool-&gt;Borrower</title>
<path fill="none" stroke="#000000" d="M41.0679,-99.2848C27.1052,-93.8104 11.1743,-84.8407 2.9333,-70.8 -5.5319,-56.3775 6.7921,-44.2144 22.8569,-35.2109"/>
<polygon fill="#000000" stroke="#000000" points="24.7259,-38.1873 32.0584,-30.5397 21.5572,-31.9455 24.7259,-38.1873"/>
<text text-anchor="middle" x="57.6371" y="-58.2" font-family="Times,serif" font-size="14.00" fill="#000000">Borrows stablecoin</text>
</g>
<!-- Borrower&#45;&gt;Pool -->
<g id="edge3" class="edge">
<title>Borrower-&gt;Pool</title>
<path fill="none" stroke="#000000" d="M93.4169,-33.3686C106.4177,-43.1795 118.0963,-56.6744 111.4025,-70.8 108.148,-77.6677 102.8706,-83.661 97.0817,-88.6845"/>
<polygon fill="#000000" stroke="#000000" points="94.7819,-86.0385 89.0126,-94.9247 99.0642,-91.5758 94.7819,-86.0385"/>
<text text-anchor="middle" x="163.1378" y="-58.2" font-family="Times,serif" font-size="14.00" fill="#000000">Repays stablecoin</text>
</g>
</g>
</svg>