<?xml version="1.0" encoding="UTF-8" ?>
<svg xmlns="http://www.w3.org/2000/svg" xmlns:xlink="http://www.w3.org/1999/xlink" width="336pt" height="133pt" viewBox="0.00 0.00 336.40 132.80">
<g id="graph0" class="graph" transform="scale(1 1) rotate(0) translate(4 128.8)">
<title>%0</title>
<polygon fill="#ffffff" stroke="transparent" points="-4,4 -4,-128.8 332.4046,-128.8 332.4046,4 -4,4"/>
<!-- Storage -->
<g id="node1" class="node">
<title>Storage</title>
<ellipse fill="none" stroke="#000000" cx="110" cy="-106.8" rx="40.5673" ry="18"/>
<text text-anchor="middle" x="110" y="-102.6" font-family="Times,serif" font-size="14.00" fill="#000000">Storage</text>
</g>
<!-- 123 -->
<g id="node2" class="node">
<title>123</title>
<ellipse fill="none" stroke="#000000" cx="27" cy="-18" rx="27" ry="18"/>
<text text-anchor="middle" x="27" y="-13.8" font-family="Times,serif" font-size="14.00" fill="#000000">123</text>
</g>
<!-- Storage&#45;&gt;123 -->
<g id="edge1" class="edge">
<title>Storage-&gt;123</title>
<path fill="none" stroke="#000000" d="M72.3755,-99.6878C55.9849,-94.541 38.2633,-85.748 28.2574,-70.8 23.4709,-63.6494 22.0247,-54.646 22.113,-46.1092"/>
<polygon fill="#000000" stroke="#000000" points="25.6072,-46.316 22.8604,-36.0835 18.6266,-45.7956 25.6072,-46.316"/>
<text text-anchor="middle" x="100.3713" y="-58.2" font-family="Times,serif" font-size="14.00" fill="#000000">echo -n hello | keccak256</text>
</g>
<!-- 456 -->
<g id="node3" class="node">
<title>456</title>
<ellipse fill="none" stroke="#000000" cx="193" cy="-18" rx="27" ry="18"/>
<text text-anchor="middle" x="193" y="-13.8" font-family="Times,serif" font-size="14.00" fill="#000000">456</text>
</g>
<!-- Storage&#45;&gt;456 -->
<g id="edge2" class="edge">
<title>Storage-&gt;456</title>
<path fill="none" stroke="#000000" d="M139.4716,-94.3318C150.513,-88.4941 162.4422,-80.6321 171,-70.8 177.2529,-63.6161 181.9084,-54.4043 185.2858,-45.6924"/>
<polygon fill="#000000" stroke="#000000" points="188.6067,-46.7983 188.5729,-36.2035 181.9923,-44.5069 188.6067,-46.7983"/>
<text text-anchor="middle" x="254.7023" y="-58.2" font-family="Times,serif" font-size="14.00" fill="#000000">echo -n world | keccak256</text>
</g>
</g>
</svg>